<svg xmlns="http://www.w3.org/2000/svg" width="512" height="512" style="overflow: visible;" viewBox="0 0 512 512" data-svgdocument="" id="_fnBE7coCUm_cOkjFfZ7Jq" class="fl-svgdocument" x="0" y="0" xmlns:xlink="http://www.w3.org/1999/xlink"><defs transform="matrix(0.8054168820381165, 0, 0, 0.8054168820381165, -82.12862396240234, 106.05882263183594)" data-uid="o_emcinaga4_4"></defs><g transform="matrix(2.1568362712860107, 0, 0, 2.1568362712860107, -291.86395263671875, -75.9807357788086)" stroke="#232020" stroke-width="8" fill="#232020" data-uid="o_emcinaga4_5"><path d="M82.444,13.005c-10.368,0.838-21.071,4.271-31.045,9.962v58.087c9.993-5.545,20.679-8.885,31.045-9.699V13.005z" stroke="#232020" fill="#232020" transform="matrix(2.3737940788269043, 0, 0, 2.3737940788269043, 134.17286682128906, 36.77702331542969)" stroke-width="8" data-uid="o_emcinaga4_6"></path><path d="M49.569,22.967c-9.975-5.691-20.677-9.125-31.045-9.962v58.351c10.367,0.814,21.05,4.154,31.045,9.699V22.967z" stroke="#232020" fill="#232020" transform="matrix(2.468961238861084, 0, 0, 2.468961238861084, 130.2679901123047, 36.0861930847168)" stroke-width="8" data-uid="o_emcinaga4_7"></path><path d="M49.229,84.073c0.814,0.278,1.671,0.29,2.485,0.012c11.657-5.043,23.865-7.313,35.798-6.79V19.524   c-1.074-0.048-2.155-0.059-3.24-0.055v53.594l-0.852,0.056c-10.672,0.697-21.732,4.177-32.021,10.048   c-0.594,0.203-1.237,0.203-1.83,0c-10.29-5.871-21.349-9.351-32.021-10.048l-0.854-0.056V19.469   c-1.084-0.004-2.166,0.006-3.239,0.055v57.771C25.387,76.771,37.569,79.03,49.229,84.073z" stroke="#232020" fill="#232020" transform="matrix(2.468961238861084, 0, 0, 2.468961238861084, 129.2041015625, 34.94208526611328)" stroke-width="8" data-uid="o_emcinaga4_8"></path><path d="M92.579,26.009c-1.07-0.149-2.157-0.228-3.237-0.335v53.55l-0.968-0.056c-12.195-0.699-25.06,1.777-36.975,7.065   l-0.916,0.381l-0.915-0.381c-11.917-5.288-24.781-7.765-36.976-7.065l-0.967,0.056v-53.55c-1.081,0.108-2.168,0.187-3.238,0.335   v58.707c0.594,0.307,1.044,0.748,1.044,0.748c12.951-1.75,26.393-1.536,39.18,2.651c0.588-0.058,1.212-0.095,1.873-0.095   c0.661,0,1.285,0.037,1.872,0.095c12.785-4.188,26.229-4.401,39.179-2.651c0,0,0.474-0.462,1.044-0.748V26.009z" stroke="#232020" fill="#232020" transform="matrix(2.468961238861084, 0, 0, 2.468961238861084, 129.3721923828125, 34.43341827392578)" stroke-width="8" data-uid="o_emcinaga4_9"></path><path d="M65.283,16.667v20.625l-3.98-4.738l-4.195,4.738V19.994c-1.924,0.91-3.829,1.901-5.708,2.974v58.087   c9.993-5.545,20.679-8.885,31.045-9.699V13.005C76.766,13.464,70.987,14.706,65.283,16.667z" stroke="#232020" fill="#232020" transform="matrix(2.468961238861084, 0, 0, 2.468961238861084, 128.10406494140625, 36.0861930847168)" stroke-width="8" data-uid="o_emcinaga4_10"></path></g><g transform="matrix(2.1568362712860107, 0, 0, 2.1568362712860107, -291.87994384765625, -76.28887176513672)" data-uid="o_emcinaga4_11"><path d="M49.569,22.967c-9.975-5.691-20.677-9.125-31.045-9.962v58.351c10.367,0.814,21.05,4.154,31.045,9.699V22.967z" stroke="none" fill="#469be9" transform="matrix(2.320308208465576, 0, 0, 2.3451731204986572, 136.8446807861328, 37.753746032714844)" stroke-width="1" data-uid="o_emcinaga4_12"></path><path d="M49.229,84.073c0.814,0.278,1.671,0.29,2.485,0.012c11.657-5.043,23.865-7.313,35.798-6.79V19.524   c-1.074-0.048-2.155-0.059-3.24-0.055v53.594l-0.852,0.056c-10.672,0.697-21.732,4.177-32.021,10.048   c-0.594,0.203-1.237,0.203-1.83,0c-10.29-5.871-21.349-9.351-32.021-10.048l-0.854-0.056V19.469   c-1.084-0.004-2.166,0.006-3.239,0.055v57.771C25.387,76.771,37.569,79.03,49.229,84.073z" stroke="none" fill="#4946e9" transform="matrix(2.4207136631011963, 0, 0, 2.4207136631011963, 131.81407165527344, 38.94956588745117)" stroke-width="1" data-uid="o_emcinaga4_13"></path><path d="M92.579,26.009c-1.07-0.149-2.157-0.228-3.237-0.335v53.55l-0.968-0.056c-12.195-0.699-25.06,1.777-36.975,7.065   l-0.916,0.381l-0.915-0.381c-11.917-5.288-24.781-7.765-36.976-7.065l-0.967,0.056v-53.55c-1.081,0.108-2.168,0.187-3.238,0.335   v58.707c0.594,0.307,1.044,0.748,1.044,0.748c12.951-1.75,26.393-1.536,39.18,2.651c0.588-0.058,1.212-0.095,1.873-0.095   c0.661,0,1.285,0.037,1.872,0.095c12.785-4.188,26.229-4.401,39.179-2.651c0,0,0.474-0.462,1.044-0.748V26.009z" stroke="none" fill="#2c3233" transform="matrix(2.468961238861084, 0, 0, 2.468961238861084, 129.3721923828125, 34.43341827392578)" stroke-width="1" data-uid="o_emcinaga4_14"></path><path d="M65.283,16.667v20.625l-3.98-4.738l-4.195,4.738V19.994c-1.924,0.91-3.829,1.901-5.708,2.974v58.087   c9.993-5.545,20.679-8.885,31.045-9.699V13.005C76.766,13.464,70.987,14.706,65.283,16.667z" stroke="none" fill="#469be9" transform="matrix(2.2129244804382324, 0, 0, 2.3667116165161133, 146.3104248046875, 37.484405517578125)" stroke-width="1" data-uid="o_emcinaga4_15"></path></g></svg>