<svg xmlns="http://www.w3.org/2000/svg" width="512" height="512" style="overflow: visible;" viewBox="0 0 512 512" data-svgdocument="" id="_fnBE7coCUm_cOkjFfZ7Jq" class="fl-svgdocument" x="0" y="0" xmlns:xlink="http://www.w3.org/1999/xlink"><defs transform="matrix(0.8054168820381165, 0, 0, 0.8054168820381165, -82.12862396240234, 106.05882263183594)" data-uid="o_emchfi2m5_4"></defs><g transform="matrix(2.1568362712860107, 0, 0, 2.1568362712860107, -291.8639386980619, -75.9807372798428)" stroke="#232020" stroke-width="8" fill="#232020" data-uid="o_emchfi2m5_5"><path d="M82.444,13.005c-10.368,0.838-21.071,4.271-31.045,9.962v58.087c9.993-5.545,20.679-8.885,31.045-9.699V13.005z" stroke="#232020" fill="#232020" transform="matrix(2.3737940788269043, 0, 0, 2.3737940788269043, 134.17286682128906, 36.77702331542969)" stroke-width="8" data-uid="o_emchfi2m5_6"></path><path d="M49.569,22.967c-9.975-5.691-20.677-9.125-31.045-9.962v58.351c10.367,0.814,21.05,4.154,31.045,9.699V22.967z" stroke="#232020" fill="#232020" transform="matrix(2.468961238861084, 0, 0, 2.468961238861084, 130.2679901123047, 36.0861930847168)" stroke-width="8" data-uid="o_emchfi2m5_7"></path><path d="M49.229,84.073c0.814,0.278,1.671,0.29,2.485,0.012c11.657-5.043,23.865-7.313,35.798-6.79V19.524   c-1.074-0.048-2.155-0.059-3.24-0.055v53.594l-0.852,0.056c-10.672,0.697-21.732,4.177-32.021,10.048   c-0.594,0.203-1.237,0.203-1.83,0c-10.29-5.871-21.349-9.351-32.021-10.048l-0.854-0.056V19.469   c-1.084-0.004-2.166,0.006-3.239,0.055v57.771C25.387,76.771,37.569,79.03,49.229,84.073z" stroke="#232020" fill="#232020" transform="matrix(2.468961238861084, 0, 0, 2.468961238861084, 129.2041015625, 34.94208526611328)" stroke-width="8" data-uid="o_emchfi2m5_8"></path><path d="M92.579,26.009c-1.07-0.149-2.157-0.228-3.237-0.335v53.55l-0.968-0.056c-12.195-0.699-25.06,1.777-36.975,7.065   l-0.916,0.381l-0.915-0.381c-11.917-5.288-24.781-7.765-36.976-7.065l-0.967,0.056v-53.55c-1.081,0.108-2.168,0.187-3.238,0.335   v58.707c0.594,0.307,1.044,0.748,1.044,0.748c12.951-1.75,26.393-1.536,39.18,2.651c0.588-0.058,1.212-0.095,1.873-0.095   c0.661,0,1.285,0.037,1.872,0.095c12.785-4.188,26.229-4.401,39.179-2.651c0,0,0.474-0.462,1.044-0.748V26.009z" stroke="#232020" fill="#232020" transform="matrix(2.468961238861084, 0, 0, 2.468961238861084, 129.3721923828125, 34.43341827392578)" stroke-width="8" data-uid="o_emchfi2m5_9"></path><path d="M65.283,16.667v20.625l-3.98-4.738l-4.195,4.738V19.994c-1.924,0.91-3.829,1.901-5.708,2.974v58.087   c9.993-5.545,20.679-8.885,31.045-9.699V13.005C76.766,13.464,70.987,14.706,65.283,16.667z" stroke="#232020" fill="#232020" transform="matrix(2.468961238861084, 0, 0, 2.468961238861084, 128.10406494140625, 36.0861930847168)" stroke-width="8" data-uid="o_emchfi2m5_10"></path></g><g transform="matrix(2.1568362712860107, 0, 0, 2.1568362712860107, -291.8799299089994, -76.28887326617092)" data-uid="o_emchfi2m5_11"><path d="M49.569,22.967c-9.975-5.691-20.677-9.125-31.045-9.962v58.351c10.367,0.814,21.05,4.154,31.045,9.699V22.967z" stroke="none" fill="#ffffff" transform="matrix(2.320308208465576, 0, 0, 2.3451731204986572, 136.8446807861328, 37.753746032714844)" stroke-width="1" data-uid="o_emchfi2m5_12"></path><path d="M49.229,84.073c0.814,0.278,1.671,0.29,2.485,0.012c11.657-5.043,23.865-7.313,35.798-6.79V19.524   c-1.074-0.048-2.155-0.059-3.24-0.055v53.594l-0.852,0.056c-10.672,0.697-21.732,4.177-32.021,10.048   c-0.594,0.203-1.237,0.203-1.83,0c-10.29-5.871-21.349-9.351-32.021-10.048l-0.854-0.056V19.469   c-1.084-0.004-2.166,0.006-3.239,0.055v57.771C25.387,76.771,37.569,79.03,49.229,84.073z" stroke="none" fill="#6b5af6" transform="matrix(2.4207136631011963, 0, 0, 2.4207136631011963, 131.81407647451607, 38.94956453539139)" stroke-width="1" data-uid="o_emchfi2m5_13"></path><path d="M92.579,26.009c-1.07-0.149-2.157-0.228-3.237-0.335v53.55l-0.968-0.056c-12.195-0.699-25.06,1.777-36.975,7.065   l-0.916,0.381l-0.915-0.381c-11.917-5.288-24.781-7.765-36.976-7.065l-0.967,0.056v-53.55c-1.081,0.108-2.168,0.187-3.238,0.335   v58.707c0.594,0.307,1.044,0.748,1.044,0.748c12.951-1.75,26.393-1.536,39.18,2.651c0.588-0.058,1.212-0.095,1.873-0.095   c0.661,0,1.285,0.037,1.872,0.095c12.785-4.188,26.229-4.401,39.179-2.651c0,0,0.474-0.462,1.044-0.748V26.009z" stroke="none" fill="#2c3233" transform="matrix(2.468961238861084, 0, 0, 2.468961238861084, 129.3721923828125, 34.43341827392578)" stroke-width="1" data-uid="o_emchfi2m5_14"></path><path d="M65.283,16.667v20.625l-3.98-4.738l-4.195,4.738V19.994c-1.924,0.91-3.829,1.901-5.708,2.974v58.087   c9.993-5.545,20.679-8.885,31.045-9.699V13.005C76.766,13.464,70.987,14.706,65.283,16.667z" stroke="none" fill="#ffffff" transform="matrix(2.2129244804382324, 0, 0, 2.3667116165161133, 146.3104248046875, 37.484405517578125)" stroke-width="1" data-uid="o_emchfi2m5_15"></path></g><g data-uid="o_emchfi2m5_122" transform="matrix(3.1233532428741455, 0, 0, 3.1233532428741455, 24.330627448027485, 77.93806870562736)"><path d="m 49.11962,957.36225 a 1.1831662,1.1831662 0 0 0 -0.619249,0.15828 l -18.446998,10.65088 a 1.1831662,1.1831662 0 0 0 -0.591524,1.0248 l 0,21.3006 a 1.1831662,1.1831662 0 0 0 0.591524,1.0248 l 4.8535,2.8017 0,24.46039 -8.483517,4.8974 a 1.1831662,1.1831662 0 0 0 -0.591524,1.0248 l 0,10.8219 a 1.1831662,1.1831662 0 0 0 0.59037,1.0247 l 0.147881,0.086 a 1.1831662,1.1831662 0 0 0 0.0012,0 l 18.299118,10.5654 a 1.1831662,1.1831662 0 0 0 1.183048,0 l 9.371957,-5.4115 a 1.1831662,1.1831662 0 0 0 0.591524,-1.0248 l 0,-8.0884 7.004708,4.0448 a 1.1831662,1.1831662 0 0 0 1.183048,0 l 9.371958,-5.4103 a 1.1831662,1.1831662 0 0 0 0.591524,-1.0248 l 0,-10.8219 a 1.1831662,1.1831662 0 0 0 -0.591524,-1.0248 l -8.484672,-4.8985 0,-20.26779 3.038487,-1.7538 a 1.1831662,1.1831662 0 0 0 0.591524,-1.0248 l 0,-21.3006 a 1.1831662,1.1831662 0 0 0 -0.591524,-1.0248 l -18.44701,-10.65138 a 1.1831662,1.1831662 0 0 0 -0.563799,-0.15828 z m -0.02774,3.23374 15.193612,8.77122 -15.193612,8.7723 -15.193617,-8.7723 15.193617,-8.77122 z m -16.672427,11.33372 15.193618,8.77 0,17.5447 -15.193618,-8.7712 0,-17.5435 z m 33.344849,0 0,17.5435 -15.193612,8.7712 0,-17.5447 15.193612,-8.77 z m -31.193642,3.7247 0,2.0969 0,2.0958 1.815008,1.0479 1.816162,1.0478 0,-2.0957 0,-2.0958 -1.816162,-1.0478 -1.815008,-1.0491 z m 3.63117,6.2884 0,2.0958 -1.816162,-1.0479 0,2.0958 0,2.0957 0,2.0969 1.816162,1.0479 0,-2.0969 1.815009,1.049 1.815008,1.0479 0,2.0957 1.815008,1.0479 0,-2.0957 0,-2.0958 0,-2.0969 -1.815008,-1.0479 0,-2.0957 -1.815008,-1.0479 -1.815009,-1.0479 z m 3.630017,2.0958 1.815008,1.0479 1.815009,1.0478 0,-2.0957 0,-2.0958 -1.815009,-1.0478 -1.815008,-1.0479 0,2.0957 0,2.0958 z m 20.302444,10.9466 0,29.03789 -6.117422,3.5318 0,-29.03899 6.117422,-3.5307 z m -24.269813,1.0468 10.635879,6.14049 a 1.1831662,1.1831662 0 0 0 1.184201,0 l 0.146727,-0.086 3.227964,-1.8635 0,27.3314 -15.194771,-8.7712 0,-22.75169 z m 27.227433,20.92749 4.639766,2.678 -4.639766,2.678 0,-5.356 z m -28.707396,4.3855 10.165658,5.8679 5.030266,2.9045 -6.118575,3.533 -15.193617,-8.7736 6.116268,-3.5318 z m 34.825972,0.8538 0,7.0648 -6.118576,3.5318 0,-7.0648 6.118576,-3.5318 z m -42.42105,5.2406 15.193617,8.7712 0,7.0636 -15.193617,-8.7712 0,-7.0636 z m 33.344854,0 0,5.356 -4.639766,-2.678 4.639766,-2.678 z m -9.075042,5.2393 0,7.0648 -6.118575,3.5318 0,-7.0647 6.118575,-3.5319 z" transform="matrix(1, 0, 0, 1, -2.2242385755847227, -951.9173349020706)" data-uid="o_emchfi2m5_120"></path></g><g data-uid="o_emchfi2m5_467" transform="matrix(2.8675203323364253, 0, 0, 3.5474461689757026, 275.58593749999994, 196.91284407969113)" name="text"><path d="M46,3.5H2C1.2,3.5,0.5,2.8,0.5,2S1.2,0.5,2,0.5h44c0.8,0,1.5,0.7,1.5,1.5S46.8,3.5,46,3.5z" transform="matrix(1, 0, 0, 1, 0, 0)" data-uid="o_emchfi2m5_453"></path><path d="M39.9,10.8H8.1c-0.8,0-1.5-0.7-1.5-1.5s0.7-1.5,1.5-1.5h31.9c0.8,0,1.5,0.7,1.5,1.5S40.8,10.8,39.9,10.8z" transform="matrix(1, 0, 0, 1, 0, 0)" data-uid="o_emchfi2m5_455"></path><path d="M46,18.2H2c-0.8,0-1.5-0.7-1.5-1.5c0-0.8,0.7-1.5,1.5-1.5h44c0.8,0,1.5,0.7,1.5,1.5    C47.5,17.5,46.8,18.2,46,18.2z" transform="matrix(1, 0, 0, 1, 0, 0)" data-uid="o_emchfi2m5_457"></path><path d="M39.9,25.5H8.1c-0.8,0-1.5-0.7-1.5-1.5s0.7-1.5,1.5-1.5h31.9c0.8,0,1.5,0.7,1.5,1.5S40.8,25.5,39.9,25.5z" transform="matrix(1, 0, 0, 1, 0, 0)" data-uid="o_emchfi2m5_459"></path><path d="M46,32.8H2c-0.8,0-1.5-0.7-1.5-1.5s0.7-1.5,1.5-1.5h44c0.8,0,1.5,0.7,1.5,1.5S46.8,32.8,46,32.8z" transform="matrix(1, 0, 0, 1, 0, 0)" data-uid="o_emchfi2m5_461"></path><path d="M39.9,40.2H8.1c-0.8,0-1.5-0.7-1.5-1.5s0.7-1.5,1.5-1.5h31.9c0.8,0,1.5,0.7,1.5,1.5S40.8,40.2,39.9,40.2z" transform="matrix(1, 0, 0, 1, 0, 0)" data-uid="o_emchfi2m5_463"></path><path d="M46,47.5H2c-0.8,0-1.5-0.7-1.5-1.5s0.7-1.5,1.5-1.5h44c0.8,0,1.5,0.7,1.5,1.5S46.8,47.5,46,47.5z" transform="matrix(1, 0, 0, 1, 0, 0)" data-uid="o_emchfi2m5_465"></path></g></svg>